Coordinates
version=1
nRows=32
nColumns=22
inDegrees=yes

Units are S.I. units (second, meters, Newtons, ...)
If the header above contains a line with 'inDegrees', this indicates whether rotational values are in degrees (yes) or radians (no).

endheader
time	pelvis_tilt	pelvis_list	pelvis_rotation	pelvis_tx	pelvis_ty	pelvis_tz	hip_flexion_r	hip_adduction_r	hip_rotation_r	knee_angle_r	ankle_angle_r	subtalar_angle_r	hip_flexion_l	hip_adduction_l	hip_rotation_l	knee_angle_l	ankle_angle_l	subtalar_angle_l	lumbar_extension	lumbar_bending	lumbar_rotation
      1.32000000	      2.52638859	     -2.76417940	      0.02962247	      0.63971858	      1.08372832	     -0.30507526	     -3.65341594	      5.17999862	     -1.22280258	     -8.21296764	      8.87353339	     -6.14234852	      1.85785726	     -4.41008043	     -2.56725366	    -19.64144784	     13.85857245	      1.27875241	     -5.61614565	      0.83595727	     -5.29897347
      1.33000000	      2.53016276	     -2.78261321	      0.14451029	      0.63759734	      1.08378343	     -0.30450500	     -3.48967196	      5.24766382	     -1.35212330	     -8.28944217	      8.79430309	     -6.19089120	      2.24261166	     -4.46782181	     -2.38904656	    -20.08215302	     13.75261603	      1.32466516	     -5.81906848	      0.91635616	     -5.34240219
      1.34000000	      2.49656527	     -2.77128753	      0.26008364	      0.63535857	      1.08381729	     -0.30391958	     -3.26711038	      5.28353307	     -1.49163883	     -8.38752695	      8.73008726	     -6.24440539	      2.67690127	     -4.49362975	     -2.21754491	    -20.52300600	     13.61582917	      1.38960205	     -5.98557413	      0.96385257	     -5.39538963
      1.35000000	      2.48407576	     -2.74451828	      0.39458394	      0.63301813	      1.08393339	     -0.30336256	     -3.05291508	      5.30273456	     -1.65405844	     -8.49994275	      8.63560052	     -6.28347762	      3.07684762	     -4.49739986	     -2.01684470	    -20.92059852	     13.44263593	      1.45632249	     -6.18551534	      0.99997012	     -5.45555427
      1.36000000	      2.43221483	     -2.69101117	      0.53176314	      0.63057144	      1.08402889	     -0.30281042	     -2.77878022	      5.29142887	     -1.83012116	     -8.63296633	      8.55558337	     -6.32463434	      3.51847440	     -4.47094424	     -1.81998519	    -21.30113139	     13.24779902	      1.54992779	     -6.34524928	      1.00840460	     -5.51585089
      1.37000000	      2.37111750	     -2.61933386	      0.67355662	      0.62802225	      1.08414607	     -0.30227902	     -2.48066207	      5.25818925	     -2.00898736	     -8.78118632	      8.46907869	     -6.36144498	      3.95926140	     -4.42233388	     -1.62357301	    -21.64612996	     13.03874920	      1.66511894	     -6.50004357	      0.99946140	     -5.57363640
      1.38000000	      2.29384155	     -2.53323951	      0.82658892	      0.62539862	      1.08426811	     -0.30177510	     -2.15623468	      5.20733924	     -2.20162770	     -8.93762967	      8.37928645	     -6.39631679	      4.40127104	     -4.35450893	     -1.41777496	    -21.94833526	     12.83006059	      1.80911385	     -6.63664303	      0.97527277	     -5.63333896
      1.39000000	      2.20114685	     -2.44083457	      0.98320736	      0.62269923	      1.08437540	     -0.30128691	     -1.80739195	      5.14679166	     -2.39856895	     -9.10132566	      8.28522097	     -6.43160398	      4.84384021	     -4.27816256	     -1.21118858	    -22.21280722	     12.64740079	      1.99013517	     -6.75565423	      0.94289494	     -5.69432210
      1.40000000	      2.09919966	     -2.34842287	      1.14348534	      0.61995097	      1.08446368	     -0.30083983	     -1.44846818	      5.08218798	     -2.59587478	     -9.26074017	      8.19015593	     -6.46881167	      5.27795202	     -4.19863901	     -1.00546225	    -22.44281101	     12.51563911	      2.21439781	     -6.85826731	      0.91164364	     -5.75184778
      1.41000000	      1.99607430	     -2.26284799	      1.30356985	      0.61716656	      1.08452558	     -0.30041640	     -1.09101944	      5.02165991	     -2.79453228	     -9.41161476	      8.09059074	     -6.50873600	      5.69514123	     -4.12621112	     -0.80857698	    -22.64638614	     12.44866407	      2.48372942	     -6.95207042	      0.88613666	     -5.80593921
      1.42000000	      1.88259582	     -2.19746048	      1.44763263	      0.61434971	      1.08452540	     -0.29999609	     -0.72669475	      4.97878019	     -2.97361944	     -9.55108278	      7.98099686	     -6.55621909	      6.11215830	     -4.08051199	     -0.65160971	    -22.84896753	     12.48781982	      2.82766642	     -7.02343744	      0.87828712	     -5.82856042
      1.43000000	      1.81076686	     -2.14088006	      1.61556761	      0.61151583	      1.08453116	     -0.29965957	     -0.41879305	      4.94170644	     -3.17215099	     -9.66934517	      7.88940514	     -6.59989872	      6.47078620	     -4.04021737	     -0.47507603	    -23.04859585	     12.59409838	      3.13726230	     -7.13104590	      0.88417095	     -5.89502083
      1.44000000	      1.75039182	     -2.12181632	      1.76096487	      0.60868170	      1.08447796	     -0.29933227	     -0.13765358	      4.94090383	     -3.35895669	     -9.75725422	      7.79473759	     -6.64690546	      6.81574972	     -4.05115580	     -0.37257825	    -23.29770001	     12.84146224	      3.45073047	     -7.23277903	      0.92768725	     -5.90106465
      1.45000000	      1.68581751	     -2.12250768	      1.88812320	      0.60577693	      1.08436323	     -0.29899433	      0.15038993	      4.95989781	     -3.47802003	     -9.84533885	      7.67809373	     -6.70453352	      7.16756533	     -4.09550613	     -0.33631752	    -23.60872568	     13.14393555	      3.81825739	     -7.31988759	      0.98668294	     -5.93281420
      1.46000000	      1.66145412	     -2.15012606	      2.00836678	      0.60288748	      1.08423839	     -0.29868068	      0.37387821	      5.00622310	     -3.61250793	     -9.89117557	      7.56289722	     -6.76338634	      7.48081467	     -4.18319089	     -0.37925449	    -24.01517467	     13.54092200	      4.09205485	     -7.42832655	      1.06855188	     -5.92688961
      1.47000000	      1.67084363	     -2.21097783	      2.11721180	      0.59996308	      1.08411011	     -0.29838225	      0.55338070	      5.08766940	     -3.72560011	     -9.91771458	      7.44442750	     -6.82413949	      7.76875275	     -4.32311369	     -0.50249412	    -24.54329319	     13.99289230	      4.25750229	     -7.55693131	      1.18346844	     -5.91212633
      1.48000000	      1.71910421	     -2.29965123	      2.20851470	      0.59700117	      1.08400166	     -0.29808615	      0.68685773	      5.19924147	     -3.81399747	     -9.92966928	      7.31564216	     -6.88226230	      8.02546162	     -4.51156179	     -0.70655739	    -25.21527770	     14.47656622	      4.29736867	     -7.70903427	      1.32445325	     -5.89296238
      1.49000000	      1.77340206	     -2.40653528	      2.29155986	      0.59401103	      1.08387843	     -0.29779189	      0.80617572	      5.33068619	     -3.90400496	     -9.92155661	      7.16845639	     -6.95289703	      8.29291085	     -4.74090528	     -0.99481213	    -26.05558156	     14.97284132	      4.24747716	     -7.84276978	      1.47307120	     -5.85857635
      1.50000000	      1.81602578	     -2.52911457	      2.35794441	      0.59098639	      1.08372494	     -0.29748761	      0.93778183	      5.47775835	     -4.00173355	     -9.90463257	      7.00478442	     -7.05171461	      8.58669054	     -5.00686136	     -1.34621140	    -27.07301427	     15.45130114	      4.06869364	     -7.93725361	      1.62559303	     -5.80761857
      1.51000000	      1.89071945	     -2.66950108	      2.40796810	      0.58790659	      1.08361327	     -0.29716629	      1.03848812	      5.64682329	     -4.06944703	     -9.88657606	      6.82550751	     -7.14667230	      8.85199571	     -5.30965070	     -1.72540227	    -28.25914806	     15.90397209	      3.75390225	     -8.04876519	      1.78688775	     -5.76303016
      1.52000000	      1.96303395	     -2.81849573	      2.44092592	      0.58476617	      1.08349778	     -0.29684154	      1.15326945	      5.82456695	     -4.12807546	     -9.88077308	      6.63372092	     -7.25832244	      9.12177270	     -5.63413586	     -2.11267775	    -29.60667964	     16.30508221	      3.30269269	     -8.13684483	      1.94636982	     -5.71543120
      1.53000000	      2.03143277	     -2.96628124	      2.45345621	      0.58152822	      1.08337612	     -0.29651311	      1.30474146	      5.99845227	     -4.18219849	     -9.92512612	      6.45091839	     -7.39376797	      9.38987274	     -5.96306430	     -2.47620805	    -31.09499270	     16.63565781	      2.70352399	     -8.20848415	      2.09343060	     -5.66989229
      1.54000000	      2.11002192	     -3.12116832	      2.44903128	      0.57824111	      1.08328299	     -0.29617883	      1.44589473	      6.18122630	     -4.20791649	     -9.96017703	      6.24482329	     -7.51845576	      9.63053618	     -6.30719466	     -2.81427289	    -32.69750529	     16.90177167	      2.07057640	     -8.27442098	      2.23742047	     -5.62695017
      1.55000000	      2.18989577	     -3.28290200	      2.42688656	      0.57489319	      1.08320371	     -0.29586480	      1.59617708	      6.36878367	     -4.20905710	    -10.00596281	      6.02413590	     -7.63741357	      9.84730624	     -6.66135462	     -3.11982996	    -34.38853388	     17.10197481	      1.40263946	     -8.32606479	      2.38419999	     -5.58774436
      1.56000000	      2.25576604	     -3.43385706	      2.37960506	      0.57137653	      1.08310797	     -0.29553915	      1.81602831	      6.54147663	     -4.19924670	    -10.13760172	      5.82979972	     -7.77161034	     10.05203688	     -6.99018671	     -3.34581960	    -36.13566145	     17.19036755	      0.60739207	     -8.36870413	      2.50461589	     -5.54132036
      1.57000000	      2.32066103	     -3.58456635	      2.31577125	      0.56778198	      1.08302674	     -0.29523727	      2.04499620	      6.71176347	     -4.16296001	    -10.27380244	      5.61952363	     -7.88279002	     10.22284419	     -7.31637702	     -3.54183947	    -37.91103300	     17.19995048	     -0.18037115	     -8.40117616	      2.62066137	     -5.50588851
      1.58000000	      2.40712684	     -3.75725090	      2.23037954	      0.56406360	      1.08298766	     -0.29494064	      2.26379549	      6.90706129	     -4.06841849	    -10.41953823	      5.37491189	     -7.95439813	     10.33244154	     -7.65517420	     -3.67655445	    -39.68869057	     17.16435706	     -0.84872549	     -8.46082151	      2.75699384	     -5.45958570
      1.59000000	      2.43156596	     -3.86787916	      2.13201430	      0.56020435	      1.08286497	     -0.29470626	      2.59937866	      7.02351724	     -4.03495515	    -10.65146577	      5.21587842	     -8.03365871	     10.46493925	     -7.90752166	     -3.78112354	    -41.43451418	     16.93600602	     -1.74675914	     -8.45132045	      2.81673327	     -5.43688319
      1.60000000	      2.47549161	     -3.99666278	      2.01878719	      0.55621668	      1.08277677	     -0.29449914	      2.91709934	      7.16109574	     -3.95042011	    -10.87410126	      5.03026606	     -8.06006359	     10.53333639	     -8.16039128	     -3.82636686	    -43.13559649	     16.65320132	     -2.47232122	     -8.46753204	      2.89429332	     -5.40121716
      1.61000000	      2.52358856	     -4.13600762	      1.89457832	      0.55212138	      1.08270259	     -0.29431959	      3.22235972	      7.31146840	     -3.81953419	    -11.06815545	      4.80373171	     -8.04281923	     10.55149286	     -8.40887775	     -3.83165964	    -44.77079439	     16.30190788	     -3.00503797	     -8.48842667	      2.98162917	     -5.37906561
      1.62000000	      2.53010251	     -4.22345931	      1.77324767	      0.54787018	      1.08255238	     -0.29424514	      3.61109713	      7.39440756	     -3.75579374	    -11.32560628	      4.68199130	     -7.97854310	     10.56918408	     -8.56692565	     -3.78485674	    -46.31786570	     15.83560625	     -3.55359390	     -8.46630026	      3.01029913	     -5.37578396
      1.63000000	      2.55595003	     -4.32325895	      1.65409166	      0.54351389	      1.08244293	     -0.29422698	      3.95027259	      7.49335214	     -3.63657105	    -11.51515830	      4.49214707	     -7.88290237	     10.51796920	     -8.71162105	     -3.68088050	    -47.76116134	     15.31178102	     -3.78088110	     -8.46456319	      3.05346582	     -5.38738248
